<svg aria-hidden="true" style="width:0;height:0;position:absolute" xmlns="http://www.w3.org/2000/svg" overflow="hidden"><defs><symbol id="cart" viewBox="0 0 32 32"><path fill="var(--color1, #455a64)" d="M29.217 27.826a3.478 3.478 0 1 1-6.956 0 3.478 3.478 0 0 1 6.956 0zm-13.913 0a3.478 3.478 0 1 1-6.956 0 3.478 3.478 0 0 1 6.956 0z"/><path fill="var(--color2, #ffc107)" d="M31.826 5.105a.696.696 0 0 0-.521-.235H6.262a.696.696 0 0 0-.682.834l2.783 13.913c.067.32.347.556.682.556a.706.706 0 0 0 .092 0l20.869-2.783a.698.698 0 0 0 .598-.6v-.003l1.391-11.13a.69.69 0 0 0-.169-.553l.001.001z"/><path fill="var(--color3, #fafafa)" d="M11.826 17.391a.695.695 0 0 1-.685-.577l-.001-.004-1.391-8.348a.695.695 0 0 1 1.371-.233l.001.004 1.391 8.348a.695.695 0 0 1-.686.81zm3.478-.695h-.003a.696.696 0 0 1-.693-.63v-.003l-.696-7.652a.696.696 0 0 1 .627-.758l.006-.001a.695.695 0 0 1 .755.63l.696 7.652a.695.695 0 0 1-.63.755l-.063.006zM18.782 16a.696.696 0 0 1-.696-.696V8.348a.696.696 0 1 1 1.392 0v6.956a.696.696 0 0 1-.696.696zm3.479-.696h-.078a.696.696 0 0 1-.619-.765l.001-.007.696-6.261a.705.705 0 0 1 .772-.619.696.696 0 0 1 .615.768l-.696 6.261a.696.696 0 0 1-.691.623zm3.478-.695a.696.696 0 0 1-.673-.869l-.001.005 1.391-5.565a.696.696 0 0 1 1.357.305l-.009.036.001-.005-1.391 5.565a.697.697 0 0 1-.675.527z"/><path fill="var(--color1, #455a64)" d="M28.521 22.956H12.464a4.884 4.884 0 0 1-4.775-3.914L4.298 2.086H.695a.696.696 0 1 1 0-1.392h4.174c.335 0 .615.237.681.552l.001.005 3.503 17.516a3.487 3.487 0 0 0 3.41 2.796h16.057a.696.696 0 1 1 0 1.392z"/></symbol><symbol id="menu-icon-open" viewBox="0 0 40 40"><path fill-rule="evenodd" clip-rule="evenodd" d="M8 14.667V12h24v2.667H8Zm0 6.666h24v-2.666H8v2.666ZM8 28h24v-2.667H8V28Z"/></symbol><symbol id="menu-icon-close" viewBox="0 0 40 40"><path d="M29.667 12.88 27.787 11l-7.454 7.453L12.88 11 11 12.88l7.453 7.453L11 27.787l1.88 1.88 7.453-7.454 7.454 7.454 1.88-1.88-7.454-7.454 7.454-7.453Z"/></symbol></defs></svg>